<svg width="163" height="48" viewBox="0 0 163 48" fill="none" xmlns="http://www.w3.org/2000/svg">
<g id="Bilsan iums 1">
<rect id="Rectangle 39" x="3" y="37" width="158" height="11" fill="#AB0362"/>
<g id="Group">
<path id="Vector" d="M24.2548 17.9527C26.6255 16.6899 28.1223 14.4182 28.1223 11.4718C28.1223 6.88499 24.3798 3.81299 17.1027 3.81299H2.88147V8.94714H16.2708C19.5554 8.94714 21.3442 10.0834 21.3442 12.3976C21.3442 14.7118 19.5564 15.8905 16.2708 15.8905H10.1585V15.8933H2.88147V33.2702H17.9346C25.5856 33.2702 29.5781 30.3247 29.5781 25.233C29.5781 21.5296 27.4993 19.005 24.2557 17.9527H24.2548ZM17.4347 28.137H9.57569V20.8567H17.4347C20.9273 20.8567 22.799 22.0345 22.799 24.5176C22.799 27.0007 20.9282 28.137 17.4347 28.137Z" fill="#AB0362"/>
<path id="Vector_2" d="M34.6916 3.81396H41.4277V33.2694H34.6916V3.81396Z" fill="#AB0362"/>
<path id="Vector_3" d="M48.3308 3.81396H55.067V27.7152H69.6622V33.2694H48.3318V3.81396H48.3308Z" fill="#AB0362"/>
<path id="Vector_4" d="M73.174 30.3664L75.4607 25.2331C77.9144 27.0424 81.573 28.3051 85.0656 28.3051C89.0571 28.3051 90.6789 26.9584 90.6789 25.1491C90.6789 19.6365 73.755 23.4239 73.755 12.4836C73.755 7.47591 77.7474 3.31006 86.0215 3.31006C89.681 3.31006 93.4226 4.19344 96.1262 5.91867L94.0474 11.0944C91.3448 9.53714 88.5591 8.78021 85.9804 8.78021C81.9889 8.78021 80.4501 10.295 80.4501 12.1467C80.4501 17.5753 97.374 13.8304 97.374 24.6442C97.374 29.5679 93.3405 33.7753 85.0245 33.7753C80.4091 33.7753 75.7517 32.387 73.174 30.3673V30.3664Z" fill="#AB0362"/>
<path id="Vector_5" d="M117.791 3.81391H111.137L98.164 33.2711H105.067L107.346 27.6911L107.367 27.6348L107.645 26.9591H107.648L110.852 19.2275L111.001 18.8684L114.422 10.5053L119.037 21.7835H119.016L121.155 26.9591H121.158L121.374 27.4862L121.502 27.8028H121.505L123.737 33.2702H130.806L117.791 3.81299V3.81391Z" fill="#AB0362"/>
<path id="Vector_6" d="M160.537 3.81396V33.2694H155.007L140.495 15.3857V33.2694H133.842V3.81396H139.414L153.884 21.6977V3.81396H160.537Z" fill="#AB0362"/>
</g>
<g id="Group_2">
<path id="Vector_7" d="M6.26241 39.8492C6.26241 39.8889 6.24781 39.924 6.21771 39.9545C6.18761 39.9849 6.15295 39.9997 6.11373 39.9997H5.14868C5.10946 39.9997 5.0748 39.9849 5.04469 39.9545C5.01459 39.924 5 39.8898 5 39.8492V39.1505C5 39.1108 5.01459 39.0757 5.04469 39.0452C5.0748 39.0148 5.10854 39 5.14868 39H6.11373C6.15295 39 6.18761 39.0148 6.21771 39.0452C6.24781 39.0757 6.26241 39.1108 6.26241 39.1505V39.8492ZM6.23322 44.6428C6.23322 44.6825 6.21862 44.7175 6.18852 44.748C6.15842 44.7785 6.12376 44.7932 6.08454 44.7932H5.17878C5.13956 44.7932 5.1049 44.7785 5.0748 44.748C5.04469 44.7175 5.0301 44.6825 5.0301 44.6428V40.6385C5.0301 40.5988 5.04469 40.5637 5.0748 40.5332C5.1049 40.5028 5.13865 40.488 5.17878 40.488H6.08454C6.12376 40.488 6.15842 40.5028 6.18852 40.5332C6.21862 40.5637 6.23322 40.5988 6.23322 40.6385V44.6428Z" fill="white"/>
<path id="Vector_8" d="M10.8058 44.6356C10.8058 44.6752 10.7894 44.7122 10.7574 44.7445C10.7255 44.7768 10.689 44.7934 10.6498 44.7934H9.75135C9.71212 44.7934 9.67746 44.7768 9.64736 44.7445C9.61726 44.7122 9.60267 44.6752 9.60267 44.6356V42.134C9.60267 42.0039 9.59537 41.894 9.58077 41.8036C9.56618 41.7131 9.53882 41.6411 9.49868 41.5857C9.45946 41.5303 9.40382 41.4916 9.33176 41.4694C9.2597 41.4472 9.16757 41.4352 9.05356 41.4352C8.93954 41.4352 8.83373 41.4574 8.71971 41.5026C8.60569 41.5479 8.48438 41.6051 8.35577 41.6752V44.6356C8.35577 44.6752 8.34117 44.7122 8.31107 44.7445C8.28097 44.7768 8.24631 44.7934 8.20709 44.7934H7.30863C7.2694 44.7934 7.23292 44.7768 7.20099 44.7445C7.16907 44.7122 7.15265 44.6752 7.15265 44.6356V40.6386C7.15265 40.5989 7.16724 40.5639 7.19734 40.5334C7.22745 40.5029 7.26119 40.4882 7.30133 40.4882H8.1332C8.17243 40.4882 8.20709 40.5029 8.23719 40.5334C8.26729 40.5639 8.28188 40.5989 8.28188 40.6386V40.8186C8.48438 40.6737 8.67775 40.5722 8.86109 40.514C9.04443 40.4568 9.25423 40.4272 9.4923 40.4272C9.75955 40.4272 9.97847 40.4725 10.149 40.562C10.3196 40.6525 10.4537 40.7734 10.5495 40.9266C10.6462 41.0799 10.7127 41.2599 10.7501 41.4676C10.7875 41.6752 10.8058 41.8968 10.8058 42.1322V44.6337V44.6356Z" fill="white"/>
<path id="Vector_9" d="M14.0503 44.6501C14.0503 44.735 14.0029 44.7849 13.9089 44.8006C13.7949 44.8209 13.6964 44.8357 13.6115 44.8458C13.5276 44.856 13.4309 44.8606 13.3224 44.8606C13.119 44.8606 12.9402 44.844 12.7842 44.8117C12.6283 44.7793 12.4987 44.7157 12.3947 44.6197C12.2908 44.5246 12.2114 44.3935 12.1576 44.2255C12.1029 44.0575 12.0755 43.8415 12.0755 43.5757V41.3972L11.4817 41.2994C11.4425 41.2892 11.406 41.2707 11.3741 41.243C11.3421 41.2153 11.3257 41.1821 11.3257 41.1415V40.6458C11.3257 40.6061 11.3421 40.5692 11.3741 40.5369C11.406 40.5046 11.4425 40.488 11.4817 40.488H12.0755V39.8723C12.0755 39.8326 12.0901 39.7993 12.1202 39.7744C12.1503 39.7495 12.184 39.732 12.2242 39.7218L13.1299 39.564H13.1518C13.191 39.564 13.2239 39.575 13.2485 39.5981C13.2731 39.6203 13.2859 39.6517 13.2859 39.6923V40.4889H13.8943C13.9335 40.4889 13.9682 40.5037 13.9983 40.5341C14.0284 40.5646 14.043 40.5997 14.043 40.6394V41.2477C14.043 41.2874 14.0284 41.3224 13.9983 41.3529C13.9682 41.3824 13.9335 41.3981 13.8943 41.3981H13.2859V43.584C13.2859 43.7344 13.2978 43.8304 13.3233 43.8729C13.3479 43.9154 13.4173 43.9366 13.5313 43.9366H13.8952C13.9992 43.9366 14.0512 43.979 14.0512 44.064V44.6501H14.0503Z" fill="white"/>
<path id="Vector_10" d="M18.3264 42.8393C18.3264 42.9593 18.2744 43.0193 18.1704 43.0193H15.8025V43.0341C15.8025 43.1393 15.8153 43.2418 15.8399 43.3424C15.8645 43.443 15.9065 43.5307 15.9658 43.6055C16.0251 43.6802 16.1035 43.7402 16.1993 43.7855C16.296 43.8307 16.4182 43.8528 16.5669 43.8528C16.6855 43.8528 16.8122 43.8501 16.9454 43.8455C17.0786 43.8408 17.2118 43.8353 17.3422 43.8307C17.4736 43.8261 17.5958 43.8196 17.7098 43.8122C17.8238 43.8048 17.9178 43.7965 17.9916 43.7864H18.0135C18.1075 43.7864 18.1549 43.8261 18.1549 43.9064V44.4778C18.1549 44.5378 18.1449 44.583 18.1248 44.6135C18.1048 44.643 18.0628 44.6661 17.9989 44.6808C17.7618 44.7408 17.5283 44.7861 17.3012 44.8156C17.0731 44.8461 16.7986 44.8608 16.4775 44.8608C16.2549 44.8608 16.0324 44.8285 15.8089 44.763C15.5854 44.6975 15.3857 44.5904 15.2078 44.4399C15.0299 44.2895 14.8858 44.0901 14.7773 43.8427C14.6687 43.5944 14.614 43.2907 14.614 42.9298V42.4036C14.614 42.1027 14.6559 41.8304 14.7399 41.5848C14.8238 41.3393 14.9469 41.1316 15.1075 40.9618C15.268 40.7919 15.465 40.6599 15.6976 40.5676C15.9302 40.4753 16.1947 40.4282 16.4921 40.4282C16.7894 40.4282 17.0604 40.4781 17.2902 40.5787C17.5201 40.6793 17.7125 40.8168 17.8658 40.9922C18.019 41.1676 18.1339 41.3753 18.2106 41.6153C18.2872 41.8553 18.3255 42.1184 18.3255 42.4045V42.8402L18.3264 42.8393ZM17.1534 42.2384C17.1534 41.9578 17.0941 41.7491 16.9755 41.6107C16.8569 41.4731 16.6937 41.4039 16.4857 41.4039C16.2777 41.4039 16.1117 41.4741 15.9886 41.6144C15.8645 41.7547 15.8025 41.9624 15.8025 42.2375V42.2679H17.1534V42.2375V42.2384Z" fill="white"/>
<path id="Vector_11" d="M20.3085 44.6352C20.3085 44.6749 20.2948 44.7118 20.2674 44.7441C20.2401 44.7764 20.2063 44.793 20.1671 44.793H19.2614C19.2221 44.793 19.1856 44.7764 19.1537 44.7441C19.1218 44.7118 19.1054 44.6749 19.1054 44.6352V39.1807C19.1054 39.141 19.1218 39.106 19.1537 39.0755C19.1856 39.045 19.2221 39.0303 19.2614 39.0303H20.1671C20.2063 39.0303 20.2401 39.045 20.2674 39.0755C20.2948 39.106 20.3085 39.141 20.3085 39.1807V44.6352Z" fill="white"/>
<path id="Vector_12" d="M22.4028 44.6352C22.4028 44.6749 22.3891 44.7118 22.3617 44.7441C22.3344 44.7764 22.3006 44.793 22.2614 44.793H21.3557C21.3164 44.793 21.2799 44.7764 21.248 44.7441C21.2161 44.7118 21.1997 44.6749 21.1997 44.6352V39.1807C21.1997 39.141 21.2161 39.106 21.248 39.0755C21.2799 39.045 21.3164 39.0303 21.3557 39.0303H22.2614C22.3006 39.0303 22.3344 39.045 22.3617 39.0755C22.3891 39.106 22.4028 39.141 22.4028 39.1807V44.6352Z" fill="white"/>
<path id="Vector_13" d="M24.5554 39.8492C24.5554 39.8889 24.5408 39.924 24.5107 39.9545C24.4806 39.9849 24.446 39.9997 24.4068 39.9997H23.4417C23.4025 39.9997 23.3678 39.9849 23.3377 39.9545C23.3076 39.924 23.293 39.8898 23.293 39.8492V39.1505C23.293 39.1108 23.3076 39.0757 23.3377 39.0452C23.3678 39.0148 23.4016 39 23.4417 39H24.4068C24.446 39 24.4806 39.0148 24.5107 39.0452C24.5408 39.0757 24.5554 39.1108 24.5554 39.1505V39.8492ZM24.5253 44.6428C24.5253 44.6825 24.5107 44.7175 24.4806 44.748C24.4505 44.7785 24.4159 44.7932 24.3767 44.7932H23.4709C23.4317 44.7932 23.397 44.7785 23.3669 44.748C23.3368 44.7175 23.3222 44.6825 23.3222 44.6428V40.6385C23.3222 40.5988 23.3368 40.5637 23.3669 40.5332C23.397 40.5028 23.4308 40.488 23.4709 40.488H24.3767C24.4159 40.488 24.4505 40.5028 24.4806 40.5332C24.5107 40.5637 24.5253 40.5988 24.5253 40.6385V44.6428Z" fill="white"/>
<path id="Vector_14" d="M29.2849 41.1112C29.2849 41.1666 29.274 41.2035 29.2512 41.2238C29.2293 41.2441 29.1955 41.2617 29.1508 41.2764L28.921 41.3512C28.9657 41.4214 29.004 41.509 29.0359 41.6143C29.0678 41.7195 29.0842 41.8174 29.0842 41.9069V41.9669C29.0842 42.458 28.9246 42.8143 28.6054 43.0377C28.2861 43.2601 27.8346 43.3718 27.2508 43.3718C27.0775 43.3718 26.9243 43.3607 26.7902 43.3377C26.657 43.3146 26.553 43.2887 26.4782 43.2583C26.439 43.2832 26.4117 43.31 26.3962 43.3377C26.3806 43.3654 26.3743 43.3967 26.3743 43.4318C26.3743 43.4918 26.3889 43.537 26.419 43.5666C26.4491 43.5961 26.5083 43.622 26.5968 43.6414L27.436 43.8287C27.758 43.8989 28.0298 43.9681 28.2524 44.0355C28.4749 44.1029 28.6546 44.1814 28.7905 44.2681C28.9264 44.3558 29.024 44.461 29.0842 44.5838C29.1435 44.7066 29.1736 44.858 29.1736 45.038V45.098C29.1736 45.914 28.5251 46.3229 27.2289 46.3229C26.6105 46.3229 26.1417 46.2177 25.8224 46.0072C25.5032 45.7967 25.3435 45.494 25.3435 45.098V45.038C25.3435 44.8829 25.3782 44.7352 25.4475 44.5949C25.5168 44.4546 25.6309 44.3217 25.7887 44.197C25.6555 44.1223 25.5588 44.018 25.4995 43.885C25.4402 43.7521 25.4101 43.6238 25.4101 43.4983C25.4101 43.358 25.4411 43.2352 25.5032 43.13C25.5652 43.0247 25.6427 42.9343 25.7367 42.8595C25.6181 42.7543 25.5314 42.6167 25.4767 42.446C25.422 42.2761 25.3946 42.1155 25.3946 41.965V41.905C25.3946 41.4795 25.5415 41.1361 25.8361 40.8758C26.1307 40.6155 26.6023 40.4854 27.2499 40.4854H29.0988C29.1536 40.4854 29.1973 40.5038 29.232 40.5417C29.2667 40.5795 29.284 40.6257 29.284 40.681V41.1094L29.2849 41.1112ZM27.9477 45.0407C27.9477 45.0057 27.9386 44.9715 27.9222 44.9392C27.9048 44.9069 27.8693 44.8755 27.8145 44.845C27.7598 44.8146 27.6832 44.785 27.5847 44.7546C27.4852 44.7241 27.3521 44.69 27.1833 44.6494L26.6342 44.5294C26.5895 44.5949 26.554 44.6632 26.5266 44.7361C26.4992 44.809 26.4855 44.9097 26.4855 45.0407V45.1007C26.4855 45.2309 26.5375 45.3269 26.6415 45.3897C26.7455 45.4524 26.9407 45.4838 27.228 45.4838C27.3813 45.4838 27.5053 45.4755 27.5993 45.458C27.6932 45.4404 27.7662 45.4137 27.8182 45.3795C27.8702 45.3444 27.9048 45.3029 27.9222 45.2558C27.9395 45.2078 27.9477 45.157 27.9477 45.1017V45.0417V45.0407ZM27.9112 41.9078C27.9112 41.7527 27.8665 41.6235 27.778 41.521C27.6887 41.4186 27.5135 41.3669 27.2508 41.3669C26.9881 41.3669 26.8103 41.4186 26.7163 41.521C26.6224 41.6235 26.5749 41.7527 26.5749 41.9078V41.9678C26.5749 42.0334 26.5831 42.097 26.6005 42.1598C26.6178 42.2226 26.6516 42.2789 26.7008 42.3287C26.7501 42.3786 26.8185 42.4192 26.9051 42.4487C26.9918 42.4792 27.1067 42.494 27.2499 42.494C27.5126 42.494 27.6877 42.4469 27.7771 42.3509C27.8665 42.2558 27.9103 42.1284 27.9103 41.9678V41.9078H27.9112Z" fill="white"/>
<path id="Vector_15" d="M33.4935 42.8393C33.4935 42.9593 33.4415 43.0193 33.3375 43.0193H30.9696V43.0341C30.9696 43.1393 30.9824 43.2418 31.007 43.3424C31.0316 43.443 31.0736 43.5307 31.1329 43.6055C31.1922 43.6802 31.2706 43.7402 31.3664 43.7855C31.4631 43.8307 31.5853 43.8528 31.734 43.8528C31.8526 43.8528 31.9794 43.8501 32.1125 43.8455C32.2457 43.8408 32.3789 43.8353 32.5093 43.8307C32.6407 43.8261 32.7629 43.8196 32.8769 43.8122C32.9909 43.8048 33.0849 43.7965 33.1588 43.7864H33.1807C33.2746 43.7864 33.322 43.8261 33.322 43.9064V44.4778C33.322 44.5378 33.312 44.583 33.2919 44.6135C33.2719 44.643 33.2299 44.6661 33.1661 44.6808C32.9289 44.7408 32.6954 44.7861 32.4683 44.8156C32.2402 44.8461 31.9657 44.8608 31.6446 44.8608C31.422 44.8608 31.1995 44.8285 30.976 44.763C30.7525 44.6975 30.5528 44.5904 30.3749 44.4399C30.197 44.2895 30.0529 44.0901 29.9444 43.8427C29.8358 43.5944 29.7811 43.2907 29.7811 42.9298V42.4036C29.7811 42.1027 29.8231 41.8304 29.907 41.5848C29.9909 41.3393 30.114 41.1316 30.2746 40.9618C30.4351 40.7919 30.6321 40.6599 30.8647 40.5676C31.0973 40.4753 31.3618 40.4282 31.6592 40.4282C31.9566 40.4282 32.2275 40.4781 32.4573 40.5787C32.6872 40.6793 32.8796 40.8168 33.0329 40.9922C33.1861 41.1676 33.3011 41.3753 33.3777 41.6153C33.4543 41.8553 33.4926 42.1184 33.4926 42.4045V42.8402L33.4935 42.8393ZM32.3205 42.2384C32.3205 41.9578 32.2612 41.7491 32.1426 41.6107C32.0241 41.4731 31.8608 41.4039 31.6528 41.4039C31.4448 41.4039 31.2788 41.4741 31.1557 41.6144C31.0316 41.7547 30.9696 41.9624 30.9696 42.2375V42.2679H32.3205V42.2375V42.2384Z" fill="white"/>
<path id="Vector_16" d="M37.9265 44.6356C37.9265 44.6752 37.9101 44.7122 37.8782 44.7445C37.8463 44.7768 37.8098 44.7934 37.7706 44.7934H36.8721C36.8329 44.7934 36.7982 44.7768 36.7681 44.7445C36.738 44.7122 36.7234 44.6752 36.7234 44.6356V42.134C36.7234 42.0039 36.7161 41.894 36.7015 41.8036C36.6869 41.7131 36.6596 41.6411 36.6194 41.5857C36.5802 41.5303 36.5246 41.4916 36.4525 41.4694C36.3805 41.4472 36.2883 41.4352 36.1743 41.4352C36.0603 41.4352 35.9545 41.4574 35.8405 41.5026C35.7265 41.5479 35.6051 41.6051 35.4765 41.6752V44.6356C35.4765 44.6752 35.4619 44.7122 35.4318 44.7445C35.4017 44.7768 35.3671 44.7934 35.3278 44.7934H34.4294C34.3902 44.7934 34.3537 44.7768 34.3218 44.7445C34.2898 44.7122 34.2734 44.6752 34.2734 44.6356V40.6386C34.2734 40.5989 34.288 40.5639 34.3181 40.5334C34.3482 40.5029 34.3819 40.4882 34.4221 40.4882H35.254C35.2932 40.4882 35.3278 40.5029 35.3579 40.5334C35.388 40.5639 35.4026 40.5989 35.4026 40.6386V40.8186C35.6051 40.6737 35.7985 40.5722 35.9818 40.514C36.1652 40.4568 36.375 40.4272 36.6131 40.4272C36.8803 40.4272 37.0992 40.4725 37.2698 40.562C37.4404 40.6525 37.5745 40.7734 37.6702 40.9266C37.7669 41.0799 37.8335 41.2599 37.8709 41.4676C37.9083 41.6752 37.9265 41.8968 37.9265 42.1322V44.6337V44.6356Z" fill="white"/>
<path id="Vector_17" d="M41.1701 44.6501C41.1701 44.735 41.1227 44.7849 41.0287 44.8006C40.9147 44.8209 40.8162 44.8357 40.7314 44.8458C40.6475 44.856 40.5508 44.8606 40.4422 44.8606C40.2388 44.8606 40.06 44.844 39.9041 44.8117C39.7481 44.7793 39.6186 44.7157 39.5146 44.6197C39.4106 44.5246 39.3312 44.3935 39.2774 44.2255C39.2227 44.0575 39.1953 43.8415 39.1953 43.5757V41.3972L38.6015 41.2994C38.5623 41.2892 38.5258 41.2707 38.4939 41.243C38.462 41.2153 38.4456 41.1821 38.4456 41.1415V40.6458C38.4456 40.6061 38.462 40.5692 38.4939 40.5369C38.5258 40.5046 38.5623 40.488 38.6015 40.488H39.1953V39.8723C39.1953 39.8326 39.2099 39.7993 39.24 39.7744C39.2701 39.7495 39.3039 39.732 39.344 39.7218L40.2498 39.564H40.2717C40.3109 39.564 40.3437 39.575 40.3684 39.5981C40.393 39.6203 40.4058 39.6517 40.4058 39.6923V40.4889H41.0142C41.0534 40.4889 41.088 40.5037 41.1181 40.5341C41.1482 40.5646 41.1628 40.5997 41.1628 40.6394V41.2477C41.1628 41.2874 41.1482 41.3224 41.1181 41.3529C41.088 41.3824 41.0534 41.3981 41.0142 41.3981H40.4058V43.584C40.4058 43.7344 40.4176 43.8304 40.4431 43.8729C40.4678 43.9154 40.5371 43.9366 40.6511 43.9366H41.0151C41.119 43.9366 41.171 43.979 41.171 44.064V44.6501H41.1701Z" fill="white"/>
<path id="Vector_18" d="M48.1115 42.6969C48.1115 43.128 48.055 43.4815 47.941 43.7603C47.827 44.0381 47.6737 44.2588 47.4803 44.4212C47.287 44.5837 47.0608 44.6981 46.8008 44.7628C46.5408 44.8274 46.2626 44.8606 45.9653 44.8606C45.6679 44.8606 45.3897 44.8283 45.1297 44.7628C44.8698 44.6972 44.6436 44.5837 44.4502 44.4212C44.2568 44.2588 44.1054 44.0381 43.9932 43.7603C43.881 43.4825 43.8263 43.128 43.8263 42.6969V39.3535C43.8263 39.3138 43.8409 39.2797 43.871 39.252C43.9011 39.2243 43.9348 39.2104 43.975 39.2104H44.9473C44.9865 39.2104 45.0212 39.2243 45.0513 39.252C45.0814 39.2797 45.096 39.3129 45.096 39.3535V42.6969C45.096 42.8871 45.1097 43.0514 45.137 43.1889C45.1644 43.3264 45.2109 43.4391 45.2784 43.5268C45.3459 43.6144 45.4344 43.68 45.5457 43.7224C45.657 43.7649 45.7965 43.7861 45.9653 43.7861C46.134 43.7861 46.2736 43.7649 46.3849 43.7224C46.4961 43.68 46.5855 43.6144 46.6521 43.5268C46.7187 43.4391 46.767 43.3264 46.7971 43.1889C46.8272 43.0514 46.8418 42.8871 46.8418 42.6969V39.3535C46.8418 39.3138 46.8564 39.2797 46.8865 39.252C46.9166 39.2243 46.9504 39.2104 46.9905 39.2104H47.9556C47.9948 39.2104 48.0313 39.2243 48.0632 39.252C48.0951 39.2797 48.1115 39.3129 48.1115 39.3535V42.6969Z" fill="white"/>
<path id="Vector_19" d="M52.7069 44.6356C52.7069 44.6752 52.6905 44.7122 52.6586 44.7445C52.6266 44.7768 52.5901 44.7934 52.5509 44.7934H51.6525C51.6132 44.7934 51.5786 44.7768 51.5485 44.7445C51.5184 44.7122 51.5038 44.6752 51.5038 44.6356V42.134C51.5038 42.0039 51.4965 41.894 51.4819 41.8036C51.4673 41.7131 51.4399 41.6411 51.3998 41.5857C51.3606 41.5303 51.3049 41.4916 51.2329 41.4694C51.1608 41.4472 51.0687 41.4352 50.9547 41.4352C50.8407 41.4352 50.7349 41.4574 50.6208 41.5026C50.5068 41.5479 50.3855 41.6051 50.2569 41.6752V44.6356C50.2569 44.6752 50.2423 44.7122 50.2122 44.7445C50.1821 44.7768 50.1474 44.7934 50.1082 44.7934H49.2097C49.1705 44.7934 49.134 44.7768 49.1021 44.7445C49.0702 44.7122 49.0538 44.6752 49.0538 44.6356V40.6386C49.0538 40.5989 49.0684 40.5639 49.0985 40.5334C49.1286 40.5029 49.1623 40.4882 49.2025 40.4882H50.0343C50.0735 40.4882 50.1082 40.5029 50.1383 40.5334C50.1684 40.5639 50.183 40.5989 50.183 40.6386V40.8186C50.3855 40.6737 50.5789 40.5722 50.7622 40.514C50.9456 40.4568 51.1553 40.4272 51.3934 40.4272C51.6607 40.4272 51.8796 40.4725 52.0502 40.562C52.2207 40.6525 52.3548 40.7734 52.4506 40.9266C52.5473 41.0799 52.6139 41.2599 52.6513 41.4676C52.6887 41.6752 52.7069 41.8968 52.7069 42.1322V44.6337V44.6356Z" fill="white"/>
<path id="Vector_20" d="M54.8605 39.8492C54.8605 39.8889 54.8459 39.924 54.8158 39.9545C54.7857 39.9849 54.751 39.9997 54.7118 39.9997H53.7468C53.7075 39.9997 53.6729 39.9849 53.6428 39.9545C53.6127 39.924 53.5981 39.8898 53.5981 39.8492V39.1505C53.5981 39.1108 53.6127 39.0757 53.6428 39.0452C53.6729 39.0148 53.7066 39 53.7468 39H54.7118C54.751 39 54.7857 39.0148 54.8158 39.0452C54.8459 39.0757 54.8605 39.1108 54.8605 39.1505V39.8492ZM54.8304 44.6428C54.8304 44.6825 54.8158 44.7175 54.7857 44.748C54.7556 44.7785 54.7209 44.7932 54.6817 44.7932H53.7759C53.7367 44.7932 53.7021 44.7785 53.672 44.748C53.6419 44.7175 53.6273 44.6825 53.6273 44.6428V40.6385C53.6273 40.5988 53.6419 40.5637 53.672 40.5332C53.7021 40.5028 53.7358 40.488 53.7759 40.488H54.6817C54.7209 40.488 54.7556 40.5028 54.7857 40.5332C54.8158 40.5637 54.8304 40.5988 54.8304 40.6385V44.6428Z" fill="white"/>
<path id="Vector_21" d="M59.4933 40.6152C59.4933 40.6355 59.4905 40.6503 59.486 40.6604L58.5501 44.0712C58.5054 44.2364 58.4452 44.3721 58.3686 44.4764C58.292 44.5816 58.2053 44.6619 58.1086 44.7173C58.0119 44.7727 57.9089 44.8096 57.8003 44.8299C57.6918 44.8503 57.5823 44.8604 57.4738 44.8604C57.3652 44.8604 57.2558 44.8503 57.1472 44.8299C57.0387 44.8096 56.9365 44.7727 56.8426 44.7173C56.7486 44.6619 56.6629 44.5826 56.5863 44.4764C56.5096 44.3712 56.4485 44.2364 56.4047 44.0712L55.4771 40.6604C55.4725 40.6503 55.4698 40.6355 55.4698 40.6152C55.4698 40.5303 55.509 40.4878 55.5884 40.4878H56.568C56.6072 40.4878 56.641 40.5026 56.6683 40.533C56.6957 40.5635 56.714 40.6004 56.724 40.6456L57.3625 43.5912C57.3826 43.6964 57.419 43.749 57.4738 43.749C57.5331 43.749 57.5723 43.6964 57.5923 43.5912L58.2308 40.6456C58.2409 40.6004 58.2591 40.5626 58.2865 40.533C58.3139 40.5026 58.3467 40.4878 58.3868 40.4878H59.3665C59.4011 40.4878 59.4303 40.4989 59.4559 40.5219C59.4805 40.5441 59.4933 40.5755 59.4933 40.6161V40.6152Z" fill="white"/>
<path id="Vector_22" d="M63.5468 42.8393C63.5468 42.9593 63.4948 43.0193 63.3909 43.0193H61.0229V43.0341C61.0229 43.1393 61.0357 43.2418 61.0603 43.3424C61.085 43.443 61.1269 43.5307 61.1862 43.6055C61.2455 43.6802 61.3239 43.7402 61.4197 43.7855C61.5164 43.8307 61.6386 43.8528 61.7873 43.8528C61.9059 43.8528 62.0327 43.8501 62.1658 43.8455C62.299 43.8408 62.4322 43.8353 62.5626 43.8307C62.694 43.8261 62.8162 43.8196 62.9302 43.8122C63.0442 43.8048 63.1382 43.7965 63.2121 43.7864H63.234C63.3279 43.7864 63.3753 43.8261 63.3753 43.9064V44.4778C63.3753 44.5378 63.3653 44.583 63.3453 44.6135C63.3252 44.643 63.2832 44.6661 63.2194 44.6808C62.9822 44.7408 62.7487 44.7861 62.5216 44.8156C62.2935 44.8461 62.019 44.8608 61.6979 44.8608C61.4754 44.8608 61.2528 44.8285 61.0293 44.763C60.8058 44.6975 60.6061 44.5904 60.4282 44.4399C60.2503 44.2895 60.1062 44.0901 59.9977 43.8427C59.8891 43.5944 59.8344 43.2907 59.8344 42.9298V42.4036C59.8344 42.1027 59.8764 41.8304 59.9603 41.5848C60.0442 41.3393 60.1673 41.1316 60.3279 40.9618C60.4884 40.7919 60.6854 40.6599 60.918 40.5676C61.1506 40.4753 61.4152 40.4282 61.7125 40.4282C62.0099 40.4282 62.2808 40.4781 62.5106 40.5787C62.7405 40.6793 62.933 40.8168 63.0862 40.9922C63.2394 41.1676 63.3544 41.3753 63.431 41.6153C63.5076 41.8553 63.5459 42.1184 63.5459 42.4045V42.8402L63.5468 42.8393ZM62.3729 42.2384C62.3729 41.9578 62.3136 41.7491 62.195 41.6107C62.0765 41.4731 61.9132 41.4039 61.7052 41.4039C61.4972 41.4039 61.3312 41.4741 61.2081 41.6144C61.084 41.7547 61.022 41.9624 61.022 42.2375V42.2679H62.3729V42.2375V42.2384Z" fill="white"/>
<path id="Vector_23" d="M66.6572 41.2922C66.6572 41.3272 66.6472 41.3596 66.6271 41.39C66.6071 41.4205 66.5797 41.4352 66.545 41.4352H66.4858C66.3024 41.4352 66.1318 41.4602 65.9731 41.51C65.8144 41.5599 65.6657 41.6226 65.528 41.6974V44.6346C65.528 44.6743 65.5134 44.7112 65.4833 44.7436C65.4532 44.7759 65.4185 44.7925 65.3793 44.7925H64.4809C64.4416 44.7925 64.4052 44.7759 64.3732 44.7436C64.3413 44.7112 64.3249 44.6743 64.3249 44.6346V40.6377C64.3249 40.598 64.3395 40.5629 64.3696 40.5325C64.3997 40.502 64.4334 40.4872 64.4736 40.4872H65.3574C65.3967 40.4872 65.4313 40.502 65.4614 40.5325C65.4915 40.5629 65.5061 40.598 65.5061 40.6377V40.7882C65.6448 40.6728 65.8016 40.5842 65.9777 40.5214C66.1537 40.4586 66.3307 40.4272 66.5086 40.4272C66.5478 40.4272 66.5824 40.442 66.6125 40.4725C66.6426 40.5029 66.6572 40.538 66.6572 40.5777V41.2912V41.2922Z" fill="white"/>
<path id="Vector_24" d="M70.2429 43.5976C70.2429 43.773 70.2109 43.9382 70.1462 44.0933C70.0814 44.2484 69.9838 44.3822 69.8534 44.4958C69.722 44.6084 69.5578 44.697 69.3599 44.7626C69.162 44.8272 68.9266 44.8604 68.6548 44.8604C68.5508 44.8604 68.4405 44.8567 68.3246 44.8493C68.2079 44.8419 68.0893 44.8309 67.968 44.8152C67.8467 44.8004 67.729 44.7829 67.615 44.7626C67.501 44.7422 67.397 44.7201 67.303 44.6952C67.2091 44.6702 67.1616 44.6121 67.1616 44.5226V43.9142C67.1616 43.8746 67.1735 43.8404 67.199 43.8127C67.2237 43.785 67.2583 43.7712 67.303 43.7712H67.3331C67.4325 43.7859 67.542 43.7998 67.6633 43.8127C67.7846 43.8256 67.905 43.8367 68.0236 43.8469C68.1422 43.857 68.2526 43.8644 68.3538 43.869C68.4551 43.8746 68.5353 43.8764 68.5955 43.8764C68.7734 43.8764 68.8911 43.8524 68.9485 43.8053C69.0051 43.7573 69.0343 43.6844 69.0343 43.5838C69.0343 43.5284 69.0142 43.4776 68.975 43.4296C68.9358 43.3826 68.8637 43.3281 68.7597 43.2681L67.7947 42.705C67.5867 42.585 67.4243 42.4309 67.3085 42.2426C67.1917 42.0552 67.1343 41.8382 67.1343 41.5927C67.1343 41.2124 67.2592 40.9226 67.5092 40.725C67.7591 40.5275 68.1413 40.4287 68.6557 40.4287C68.9476 40.4287 69.1939 40.4453 69.3946 40.4776C69.5952 40.5099 69.7895 40.5515 69.9774 40.6013C70.0714 40.6262 70.1188 40.6844 70.1188 40.7739V41.3822C70.1188 41.4773 70.0769 41.5253 69.9929 41.5253H69.971C69.9163 41.5207 69.8397 41.5115 69.7412 41.4995C69.6418 41.4875 69.5341 41.4755 69.4183 41.4653C69.3015 41.4552 69.183 41.4469 69.0616 41.4395C68.9403 41.4321 68.8327 41.4284 68.7387 41.4284C68.5955 41.4284 68.4934 41.4432 68.4341 41.4736C68.3748 41.5041 68.3447 41.5613 68.3447 41.6462C68.3447 41.7016 68.3648 41.7478 68.404 41.7856C68.4432 41.8235 68.5007 41.8641 68.5745 41.9093L69.4949 42.4429C69.6481 42.5333 69.7731 42.6247 69.8698 42.717C69.9665 42.8093 70.0431 42.9044 70.0997 43.0022C70.1562 43.1001 70.1945 43.1989 70.2146 43.2986C70.2347 43.3992 70.2447 43.4989 70.2447 43.5995L70.2429 43.5976Z" fill="white"/>
<path id="Vector_25" d="M72.2623 39.8492C72.2623 39.8889 72.2477 39.924 72.2176 39.9545C72.1875 39.9849 72.1529 39.9997 72.1137 39.9997H71.1486C71.1094 39.9997 71.0747 39.9849 71.0446 39.9545C71.0145 39.924 70.9999 39.8898 70.9999 39.8492V39.1505C70.9999 39.1108 71.0145 39.0757 71.0446 39.0452C71.0747 39.0148 71.1085 39 71.1486 39H72.1137C72.1529 39 72.1875 39.0148 72.2176 39.0452C72.2477 39.0757 72.2623 39.1108 72.2623 39.1505V39.8492ZM72.2322 44.6428C72.2322 44.6825 72.2177 44.7175 72.1876 44.748C72.1575 44.7785 72.1228 44.7932 72.0836 44.7932H71.1778C71.1386 44.7932 71.1039 44.7785 71.0738 44.748C71.0437 44.7175 71.0291 44.6825 71.0291 44.6428V40.6385C71.0291 40.5988 71.0437 40.5637 71.0738 40.5332C71.1039 40.5028 71.1377 40.488 71.1778 40.488H72.0836C72.1228 40.488 72.1575 40.5028 72.1876 40.5332C72.2177 40.5637 72.2322 40.5988 72.2322 40.6385V44.6428Z" fill="white"/>
<path id="Vector_26" d="M75.6026 44.6501C75.6026 44.735 75.5552 44.7849 75.4612 44.8006C75.3472 44.8209 75.2487 44.8357 75.1639 44.8458C75.08 44.856 74.9833 44.8606 74.8747 44.8606C74.6713 44.8606 74.4925 44.844 74.3366 44.8117C74.1806 44.7793 74.0511 44.7157 73.9471 44.6197C73.8431 44.5246 73.7637 44.3935 73.7099 44.2255C73.6552 44.0575 73.6278 43.8415 73.6278 43.5757V41.3972L73.034 41.2994C72.9948 41.2892 72.9583 41.2707 72.9264 41.243C72.8945 41.2153 72.8781 41.1821 72.8781 41.1415V40.6458C72.8781 40.6061 72.8945 40.5692 72.9264 40.5369C72.9583 40.5046 72.9948 40.488 73.034 40.488H73.6278V39.8723C73.6278 39.8326 73.6424 39.7993 73.6725 39.7744C73.7026 39.7495 73.7364 39.732 73.7765 39.7218L74.6823 39.564H74.7042C74.7434 39.564 74.7762 39.575 74.8008 39.5981C74.8255 39.6203 74.8382 39.6517 74.8382 39.6923V40.4889H75.4466C75.4859 40.4889 75.5205 40.5037 75.5506 40.5341C75.5807 40.5646 75.5953 40.5997 75.5953 40.6394V41.2477C75.5953 41.2874 75.5807 41.3224 75.5506 41.3529C75.5205 41.3824 75.4859 41.3981 75.4466 41.3981H74.8382V43.584C74.8382 43.7344 74.8501 43.8304 74.8756 43.8729C74.9003 43.9154 74.9696 43.9366 75.0836 43.9366H75.4476C75.5515 43.9366 75.6035 43.979 75.6035 44.064V44.6501H75.6026Z" fill="white"/>
<path id="Vector_27" d="M80.0648 40.6228C80.0648 40.633 80.0639 40.6395 80.0612 40.6413C80.0585 40.6441 80.0575 40.6505 80.0575 40.6598L78.8106 45.085C78.7514 45.2899 78.6848 45.469 78.61 45.6222C78.5361 45.7745 78.4394 45.901 78.3208 46.0016C78.2022 46.1022 78.0508 46.1779 77.8684 46.2305C77.6851 46.2831 77.4579 46.309 77.1852 46.309C77.1159 46.309 77.0393 46.3053 76.9553 46.2979C76.8714 46.2905 76.7866 46.2813 76.7027 46.2721C76.6188 46.2619 76.5394 46.2499 76.4655 46.2342C76.3916 46.2195 76.3324 46.2038 76.2877 46.189C76.2484 46.1742 76.2119 46.1576 76.18 46.1401C76.1481 46.1225 76.1317 46.0939 76.1317 46.0533V45.445C76.1317 45.4053 76.1463 45.3711 76.1764 45.3435C76.2065 45.3158 76.2402 45.3019 76.2804 45.3019H76.295C76.3542 45.3065 76.4245 45.3121 76.5066 45.3167C76.5887 45.3213 76.6726 45.3278 76.7592 45.3351C76.8459 45.3425 76.9298 45.349 77.0119 45.3536C77.094 45.3582 77.1642 45.361 77.2235 45.361C77.3567 45.361 77.4607 45.3333 77.5355 45.2779C77.6094 45.2225 77.6695 45.1201 77.7133 44.9696L77.7799 44.737H77.6686C77.5993 44.737 77.5336 44.7305 77.4716 44.7185C77.4096 44.7056 77.3494 44.677 77.2901 44.6318C77.2308 44.5865 77.1752 44.5182 77.1232 44.425C77.0712 44.3327 77.0228 44.2035 76.9781 44.0382L75.9985 40.657C75.9939 40.6422 75.9912 40.6247 75.9912 40.6044C75.9912 40.5241 76.0405 40.4844 76.1399 40.4844H77.1268C77.166 40.4844 77.1971 40.4982 77.2199 40.5259C77.2418 40.5536 77.2582 40.5878 77.2682 40.6275L77.9368 43.4521C77.9569 43.5471 77.9861 43.5951 78.0262 43.5951H78.0928L78.7833 40.6275C78.7933 40.5878 78.8116 40.5536 78.8389 40.5259C78.8663 40.4982 78.8991 40.4844 78.9393 40.4844H79.9262C79.9654 40.4844 79.9992 40.4973 80.0265 40.5222C80.0539 40.5471 80.0676 40.5795 80.0676 40.6201L80.0648 40.6228Z" fill="white"/>
<path id="Vector_28" d="M87.6967 44.688C87.6967 44.7277 87.683 44.7554 87.6557 44.7711C87.6283 44.7859 87.6 44.7933 87.5699 44.7933H86.5903C86.5556 44.7933 86.5274 44.7785 86.5046 44.748C86.4827 44.7176 86.4708 44.6825 86.4708 44.6428V41.5099C86.4708 41.4702 86.458 41.4499 86.4334 41.4499C86.4133 41.4499 86.3942 41.4674 86.3741 41.5025L85.7055 42.7422C85.6563 42.8271 85.5815 42.8696 85.483 42.8696H84.8892C84.7897 42.8696 84.7159 42.8271 84.6666 42.7422L83.998 41.5025C83.9779 41.4674 83.9588 41.4499 83.9387 41.4499C83.9141 41.4499 83.9013 41.4702 83.9013 41.5099V44.6428C83.9013 44.6825 83.8904 44.7176 83.8676 44.748C83.8457 44.7785 83.8165 44.7933 83.7818 44.7933H82.8022C82.7721 44.7933 82.7438 44.7859 82.7164 44.7711C82.6891 44.7563 82.6754 44.7287 82.6754 44.688V39.4662C82.6754 39.3859 82.7 39.3231 82.7493 39.2788C82.7985 39.2336 82.8633 39.2114 82.9426 39.2114H83.6404C83.7891 39.2114 83.8977 39.2788 83.967 39.4145L85.1026 41.556C85.1327 41.6216 85.1592 41.6539 85.1847 41.6539C85.2048 41.6539 85.2312 41.6216 85.2668 41.556L86.4024 39.4145C86.4717 39.2797 86.5803 39.2114 86.7289 39.2114H87.4267C87.5061 39.2114 87.5699 39.2354 87.6201 39.2825C87.6694 39.3305 87.694 39.3942 87.694 39.4745V44.689L87.6967 44.688Z" fill="white"/>
<path id="Vector_29" d="M91.9437 44.643C91.9437 44.6827 91.9291 44.7178 91.899 44.7482C91.8689 44.7787 91.8342 44.7935 91.795 44.7935H90.9631C90.9239 44.7935 90.8892 44.7787 90.8591 44.7482C90.829 44.7178 90.8144 44.6827 90.8144 44.643V44.523C90.6703 44.6282 90.5189 44.7104 90.3574 44.7713C90.1969 44.8313 90.0044 44.8618 89.7819 44.8618C89.6186 44.8618 89.4617 44.8405 89.3103 44.7981C89.1589 44.7556 89.0248 44.6845 88.9053 44.5839C88.7867 44.4833 88.691 44.3513 88.6198 44.1861C88.5477 44.0208 88.5122 43.815 88.5122 43.5704V43.503C88.5122 43.0627 88.6572 42.7405 88.9464 42.5375C89.2355 42.3344 89.6998 42.2328 90.3383 42.2328H90.7396V41.9624C90.7396 41.7473 90.6904 41.607 90.591 41.5415C90.4915 41.4768 90.3556 41.4436 90.1823 41.4436C90.0637 41.4436 89.9433 41.4445 89.822 41.4473C89.7007 41.4501 89.5849 41.4538 89.4727 41.4584C89.3605 41.463 89.261 41.4695 89.1717 41.4768C89.0823 41.4842 89.0084 41.4907 88.9491 41.4953H88.9117C88.8725 41.4953 88.8396 41.4851 88.815 41.4648C88.7904 41.4445 88.7776 41.4095 88.7776 41.3596V40.7513C88.7776 40.6664 88.8241 40.611 88.919 40.5861C89.0576 40.551 89.2446 40.5159 89.4791 40.4808C89.7144 40.4458 89.9552 40.4282 90.2033 40.4282C90.4706 40.4282 90.7123 40.4568 90.9275 40.515C91.1428 40.5722 91.3243 40.6627 91.473 40.7855C91.6217 40.9082 91.7366 41.0661 91.8187 41.259C91.9008 41.4519 91.9409 41.6864 91.9409 41.9615V44.6439L91.9437 44.643ZM90.7624 42.9519H90.3392C90.2106 42.9519 90.1039 42.963 90.02 42.9861C89.936 43.0091 89.8685 43.0424 89.8193 43.0876C89.77 43.1328 89.7354 43.1901 89.7153 43.2602C89.6952 43.3304 89.6852 43.4107 89.6852 43.5011V43.5685C89.6852 43.7291 89.7235 43.8316 89.8001 43.8768C89.8767 43.9221 89.9944 43.9442 90.1531 43.9442C90.2671 43.9442 90.3748 43.9276 90.476 43.8953C90.5773 43.863 90.673 43.8242 90.7615 43.779V42.9528L90.7624 42.9519Z" fill="white"/>
<path id="Vector_30" d="M96.4871 44.6356C96.4871 44.6752 96.4706 44.7122 96.4387 44.7445C96.4068 44.7768 96.3703 44.7934 96.3311 44.7934H95.4326C95.3934 44.7934 95.3587 44.7768 95.3286 44.7445C95.2985 44.7122 95.2839 44.6752 95.2839 44.6356V42.134C95.2839 42.0039 95.2766 41.894 95.2621 41.8036C95.2475 41.7131 95.2201 41.6411 95.18 41.5857C95.1407 41.5303 95.0851 41.4916 95.013 41.4694C94.941 41.4472 94.8489 41.4352 94.7348 41.4352C94.6208 41.4352 94.515 41.4574 94.401 41.5026C94.287 41.5479 94.1657 41.6051 94.037 41.6752V44.6356C94.037 44.6752 94.0224 44.7122 93.9923 44.7445C93.9632 44.7768 93.9276 44.7934 93.8884 44.7934H92.9899C92.9507 44.7934 92.9142 44.7768 92.8823 44.7445C92.8503 44.7122 92.8339 44.6752 92.8339 44.6356V40.6386C92.8339 40.5989 92.8485 40.5639 92.8786 40.5334C92.9087 40.5029 92.9434 40.4882 92.9826 40.4882H93.8145C93.8537 40.4882 93.8884 40.5029 93.9185 40.5334C93.9486 40.5639 93.9632 40.5989 93.9632 40.6386V40.8186C94.1657 40.6737 94.359 40.5722 94.5424 40.514C94.7257 40.4568 94.9355 40.4272 95.1736 40.4272C95.4408 40.4272 95.6597 40.4725 95.8303 40.562C96.0009 40.6516 96.135 40.7734 96.2307 40.9266C96.3274 41.0799 96.394 41.2599 96.4314 41.4676C96.4688 41.6752 96.4871 41.8968 96.4871 42.1322V44.6337V44.6356Z" fill="white"/>
<path id="Vector_31" d="M100.659 44.643C100.659 44.6827 100.645 44.7178 100.615 44.7482C100.584 44.7787 100.55 44.7935 100.511 44.7935H99.6787C99.6394 44.7935 99.6048 44.7787 99.5747 44.7482C99.5455 44.7178 99.53 44.6827 99.53 44.643V44.523C99.3868 44.6282 99.2344 44.7104 99.073 44.7713C98.9124 44.8313 98.72 44.8618 98.4974 44.8618C98.3342 44.8618 98.1773 44.8405 98.0258 44.7981C97.8744 44.7556 97.7404 44.6845 97.6209 44.5839C97.5023 44.4833 97.4065 44.3513 97.3354 44.1861C97.2633 44.0208 97.2277 43.815 97.2277 43.5704V43.503C97.2277 43.0627 97.3728 42.7405 97.6619 42.5375C97.9511 42.3344 98.4153 42.2328 99.0538 42.2328H99.4543V41.9624C99.4543 41.7473 99.405 41.607 99.3056 41.5415C99.2062 41.4768 99.0703 41.4436 98.8969 41.4436C98.7784 41.4436 98.658 41.4445 98.5366 41.4473C98.4153 41.4501 98.2995 41.4538 98.1873 41.4584C98.0751 41.463 97.9757 41.4695 97.8863 41.4768C97.7969 41.4842 97.723 41.4907 97.6637 41.4953H97.6263C97.5871 41.4953 97.5543 41.4851 97.5296 41.4648C97.505 41.4445 97.4922 41.4095 97.4922 41.3596V40.7513C97.4922 40.6664 97.5397 40.611 97.6336 40.5861C97.7723 40.551 97.9593 40.5159 98.1946 40.4808C98.4299 40.4458 98.6707 40.4282 98.9188 40.4282C99.1861 40.4282 99.4269 40.4568 99.6431 40.515C99.8583 40.5722 100.041 40.6627 100.189 40.7855C100.337 40.9082 100.452 41.0661 100.533 41.259C100.615 41.4519 100.656 41.6864 100.656 41.9615V44.6439L100.659 44.643ZM99.4789 42.9519H99.0557C98.927 42.9519 98.8203 42.963 98.7364 42.9861C98.6525 43.0091 98.585 43.0424 98.5357 43.0876C98.4865 43.1328 98.4518 43.1901 98.4318 43.2602C98.4117 43.3304 98.4017 43.4107 98.4017 43.5011V43.5685C98.4017 43.7291 98.44 43.8316 98.5166 43.8768C98.5932 43.9221 98.7109 43.9442 98.8696 43.9442C98.9836 43.9442 99.0912 43.9276 99.1925 43.8953C99.2937 43.863 99.3895 43.8242 99.478 43.779V42.9528L99.4789 42.9519Z" fill="white"/>
<path id="Vector_32" d="M105.388 41.1112C105.388 41.1666 105.377 41.2035 105.354 41.2238C105.331 41.2441 105.298 41.2617 105.254 41.2764L105.024 41.3512C105.068 41.4214 105.107 41.509 105.139 41.6143C105.171 41.7195 105.187 41.8174 105.187 41.9069V41.9669C105.187 42.458 105.027 42.8143 104.708 43.0377C104.389 43.2601 103.937 43.3718 103.354 43.3718C103.18 43.3718 103.027 43.3607 102.893 43.3377C102.76 43.3146 102.656 43.2887 102.581 43.2583C102.542 43.2832 102.515 43.31 102.499 43.3377C102.483 43.3654 102.477 43.3967 102.477 43.4318C102.477 43.4918 102.492 43.537 102.522 43.5666C102.552 43.5961 102.611 43.622 102.7 43.6414L103.539 43.8287C103.861 43.8989 104.133 43.9681 104.355 44.0355C104.578 44.1029 104.757 44.1814 104.893 44.2681C105.029 44.3558 105.127 44.461 105.186 44.5838C105.245 44.7066 105.276 44.858 105.276 45.038V45.098C105.276 45.914 104.627 46.3229 103.331 46.3229C102.712 46.3229 102.244 46.2177 101.924 46.0072C101.605 45.7967 101.445 45.494 101.445 45.098V45.038C101.445 44.8829 101.48 44.7352 101.549 44.5949C101.619 44.4546 101.733 44.3217 101.891 44.197C101.757 44.1223 101.661 44.018 101.601 43.885C101.542 43.7521 101.512 43.6238 101.512 43.4983C101.512 43.358 101.543 43.2352 101.605 43.13C101.667 43.0247 101.745 42.9343 101.839 42.8595C101.72 42.7543 101.633 42.6167 101.579 42.446C101.524 42.2752 101.497 42.1155 101.497 41.965V41.905C101.497 41.4795 101.644 41.1361 101.939 40.8758C102.234 40.6155 102.705 40.4854 103.354 40.4854H105.203C105.257 40.4854 105.301 40.5038 105.336 40.5417C105.37 40.5795 105.388 40.6257 105.388 40.681V41.1094V41.1112ZM104.051 45.0407C104.051 45.0057 104.043 44.9715 104.026 44.9392C104.009 44.9069 103.973 44.8755 103.918 44.845C103.864 44.8146 103.787 44.785 103.688 44.7546C103.589 44.7241 103.456 44.69 103.287 44.6494L102.738 44.5294C102.693 44.5949 102.658 44.6632 102.63 44.7361C102.603 44.809 102.589 44.9097 102.589 45.0407V45.1007C102.589 45.2309 102.641 45.3269 102.745 45.3897C102.849 45.4524 103.044 45.4838 103.332 45.4838C103.485 45.4838 103.609 45.4755 103.703 45.458C103.797 45.4404 103.87 45.4137 103.922 45.3795C103.974 45.3444 104.009 45.3029 104.026 45.2558C104.043 45.2078 104.051 45.157 104.051 45.1017V45.0417V45.0407ZM104.015 41.9078C104.015 41.7527 103.97 41.6235 103.881 41.521C103.792 41.4186 103.616 41.3669 103.354 41.3669C103.091 41.3669 102.913 41.4186 102.819 41.521C102.725 41.6235 102.678 41.7527 102.678 41.9078V41.9678C102.678 42.0334 102.686 42.097 102.703 42.1598C102.721 42.2226 102.754 42.2789 102.804 42.3287C102.853 42.3786 102.921 42.4192 103.008 42.4487C103.095 42.4792 103.21 42.494 103.354 42.494C103.615 42.494 103.792 42.4469 103.881 42.3509C103.97 42.2558 104.015 42.1284 104.015 41.9678V41.9078Z" fill="white"/>
<path id="Vector_33" d="M109.597 42.8393C109.597 42.9593 109.545 43.0193 109.441 43.0193H107.073V43.0341C107.073 43.1393 107.086 43.2418 107.111 43.3424C107.135 43.443 107.177 43.5307 107.237 43.6055C107.296 43.6802 107.373 43.7402 107.47 43.7855C107.567 43.8307 107.689 43.8528 107.838 43.8528C107.956 43.8528 108.083 43.8501 108.216 43.8455C108.349 43.8408 108.483 43.8353 108.613 43.8307C108.744 43.8261 108.867 43.8196 108.981 43.8122C109.095 43.8048 109.189 43.7965 109.263 43.7864H109.284C109.378 43.7864 109.426 43.8261 109.426 43.9064V44.4778C109.426 44.5378 109.416 44.583 109.396 44.6135C109.376 44.643 109.334 44.6661 109.27 44.6808C109.033 44.7408 108.799 44.7861 108.572 44.8156C108.344 44.8461 108.069 44.8608 107.748 44.8608C107.526 44.8608 107.303 44.8285 107.081 44.763C106.858 44.6975 106.657 44.5904 106.48 44.4399C106.302 44.2895 106.158 44.0901 106.049 43.8427C105.941 43.5944 105.886 43.2907 105.886 42.9298V42.4036C105.886 42.1027 105.928 41.8304 106.012 41.5848C106.096 41.3393 106.219 41.1316 106.379 40.9618C106.54 40.7919 106.737 40.6599 106.969 40.5676C107.202 40.4753 107.467 40.4282 107.764 40.4282C108.061 40.4282 108.332 40.4781 108.562 40.5787C108.792 40.6793 108.984 40.8168 109.138 40.9922C109.291 41.1676 109.406 41.3753 109.482 41.6153C109.559 41.8553 109.597 42.1184 109.597 42.4045V42.8402V42.8393ZM108.424 42.2384C108.424 41.9578 108.365 41.7491 108.246 41.6107C108.128 41.4731 107.965 41.4039 107.757 41.4039C107.549 41.4039 107.383 41.4741 107.259 41.6144C107.135 41.7547 107.074 41.9624 107.074 42.2375V42.2679H108.425V42.2375L108.424 42.2384Z" fill="white"/>
<path id="Vector_34" d="M115.982 44.6356C115.982 44.6753 115.966 44.7122 115.934 44.7445C115.902 44.7768 115.866 44.7935 115.826 44.7935H114.928C114.889 44.7935 114.854 44.7768 114.824 44.7445C114.794 44.7122 114.779 44.6753 114.779 44.6356V42.0731C114.779 41.8331 114.747 41.6688 114.682 41.5811C114.618 41.4935 114.499 41.4501 114.326 41.4501C114.261 41.4501 114.178 41.4584 114.077 41.4759C113.976 41.4935 113.868 41.5295 113.754 41.5848C113.769 41.7353 113.777 41.8978 113.777 42.0731V44.6356C113.777 44.6753 113.762 44.7122 113.732 44.7445C113.702 44.7768 113.667 44.7935 113.628 44.7935H112.73C112.69 44.7935 112.654 44.7768 112.622 44.7445C112.59 44.7122 112.574 44.6753 112.574 44.6356V42.0731C112.574 41.8331 112.545 41.6688 112.488 41.5811C112.431 41.4935 112.315 41.4501 112.143 41.4501C112.074 41.4501 111.991 41.4676 111.894 41.5027C111.797 41.5378 111.692 41.5858 111.578 41.6458V44.6356C111.578 44.6753 111.564 44.7122 111.534 44.7445C111.504 44.7768 111.469 44.7935 111.43 44.7935H110.531C110.492 44.7935 110.456 44.7768 110.424 44.7445C110.392 44.7122 110.375 44.6753 110.375 44.6356V40.6387C110.375 40.599 110.39 40.5639 110.42 40.5335C110.45 40.503 110.485 40.4882 110.524 40.4882H111.371C111.41 40.4882 111.444 40.503 111.474 40.5335C111.505 40.5639 111.519 40.599 111.519 40.6387V40.8039C111.678 40.6987 111.846 40.6101 112.025 40.5371C112.202 40.4642 112.4 40.4282 112.618 40.4282C112.816 40.4282 112.986 40.4568 113.126 40.515C113.268 40.5722 113.39 40.6664 113.494 40.7965C113.603 40.7365 113.705 40.683 113.799 40.635C113.893 40.587 113.987 40.5482 114.08 40.5187C114.174 40.4891 114.272 40.4661 114.373 40.4513C114.475 40.4365 114.585 40.4291 114.703 40.4291C114.946 40.4291 115.15 40.4688 115.316 40.5491C115.482 40.6295 115.613 40.7411 115.709 40.8833C115.805 41.0264 115.875 41.199 115.917 41.4021C115.959 41.6051 115.98 41.8295 115.98 42.0741V44.6365L115.982 44.6356Z" fill="white"/>
<path id="Vector_35" d="M120.474 42.8393C120.474 42.9593 120.422 43.0193 120.318 43.0193H117.95V43.0341C117.95 43.1393 117.963 43.2418 117.987 43.3424C118.012 43.443 118.054 43.5307 118.113 43.6055C118.172 43.6802 118.25 43.7402 118.347 43.7855C118.443 43.8307 118.565 43.8528 118.714 43.8528C118.833 43.8528 118.96 43.8501 119.093 43.8455C119.226 43.8408 119.359 43.8353 119.49 43.8307C119.622 43.8261 119.744 43.8196 119.858 43.8122C119.972 43.8048 120.066 43.7965 120.14 43.7864H120.163C120.257 43.7864 120.304 43.8261 120.304 43.9064V44.4778C120.304 44.5378 120.294 44.583 120.275 44.6135C120.255 44.643 120.213 44.6661 120.149 44.6808C119.912 44.7408 119.678 44.7861 119.451 44.8156C119.223 44.8461 118.949 44.8608 118.628 44.8608C118.405 44.8608 118.182 44.8285 117.959 44.763C117.735 44.6975 117.536 44.5904 117.358 44.4399C117.18 44.2895 117.036 44.0901 116.927 43.8427C116.819 43.5944 116.764 43.2907 116.764 42.9298V42.4036C116.764 42.1027 116.806 41.8304 116.89 41.5848C116.974 41.3393 117.097 41.1316 117.257 40.9618C117.418 40.7919 117.615 40.6599 117.848 40.5676C118.08 40.4753 118.345 40.4282 118.642 40.4282C118.939 40.4282 119.21 40.4781 119.44 40.5787C119.67 40.6793 119.863 40.8168 120.016 40.9922C120.169 41.1676 120.284 41.3753 120.361 41.6153C120.438 41.8553 120.476 42.1184 120.476 42.4045V42.8402L120.474 42.8393ZM119.301 42.2384C119.301 41.9578 119.241 41.7491 119.123 41.6107C119.004 41.4731 118.841 41.4039 118.633 41.4039C118.425 41.4039 118.259 41.4741 118.136 41.6144C118.012 41.7547 117.95 41.9624 117.95 42.2375V42.2679H119.301V42.2375V42.2384Z" fill="white"/>
<path id="Vector_36" d="M124.906 44.6356C124.906 44.6752 124.889 44.7122 124.857 44.7445C124.826 44.7768 124.789 44.7934 124.75 44.7934H123.851C123.812 44.7934 123.777 44.7768 123.747 44.7445C123.718 44.7122 123.703 44.6752 123.703 44.6356V42.134C123.703 42.0039 123.695 41.894 123.68 41.8036C123.665 41.7131 123.638 41.6411 123.599 41.5857C123.559 41.5303 123.503 41.4916 123.432 41.4694C123.36 41.4472 123.268 41.4352 123.154 41.4352C123.04 41.4352 122.933 41.4574 122.82 41.5026C122.706 41.5479 122.584 41.6051 122.456 41.6752V44.6356C122.456 44.6752 122.441 44.7122 122.411 44.7445C122.381 44.7768 122.346 44.7934 122.307 44.7934H121.409C121.369 44.7934 121.333 44.7768 121.301 44.7445C121.269 44.7122 121.253 44.6752 121.253 44.6356V40.6386C121.253 40.5989 121.267 40.5639 121.297 40.5334C121.327 40.5029 121.361 40.4882 121.401 40.4882H122.233C122.272 40.4882 122.307 40.5029 122.337 40.5334C122.367 40.5639 122.382 40.5989 122.382 40.6386V40.8186C122.584 40.6737 122.778 40.5722 122.961 40.514C123.144 40.4568 123.354 40.4272 123.592 40.4272C123.86 40.4272 124.078 40.4725 124.249 40.562C124.42 40.6525 124.554 40.7734 124.649 40.9266C124.746 41.0799 124.813 41.2599 124.85 41.4676C124.888 41.6752 124.906 41.8968 124.906 42.1322V44.6337V44.6356Z" fill="white"/>
<path id="Vector_37" d="M128.15 44.6501C128.15 44.735 128.103 44.7849 128.009 44.8006C127.895 44.8209 127.796 44.8357 127.712 44.8458C127.628 44.856 127.531 44.8606 127.422 44.8606C127.219 44.8606 127.04 44.844 126.884 44.8117C126.728 44.7793 126.599 44.7157 126.495 44.6197C126.391 44.5246 126.311 44.3935 126.257 44.2255C126.202 44.0575 126.175 43.8415 126.175 43.5757V41.3972L125.582 41.2994C125.542 41.2892 125.506 41.2707 125.474 41.243C125.442 41.2153 125.426 41.1821 125.426 41.1415V40.6458C125.426 40.6061 125.442 40.5692 125.474 40.5369C125.506 40.5046 125.542 40.488 125.582 40.488H126.175V39.8723C126.175 39.8326 126.19 39.7993 126.22 39.7744C126.249 39.7495 126.284 39.732 126.324 39.7218L127.23 39.564H127.253C127.292 39.564 127.325 39.575 127.349 39.5981C127.374 39.6212 127.387 39.6517 127.387 39.6923V40.4889H127.995C128.034 40.4889 128.069 40.5037 128.099 40.5341C128.129 40.5646 128.144 40.5997 128.144 40.6394V41.2477C128.144 41.2874 128.129 41.3224 128.099 41.3529C128.069 41.3824 128.034 41.3981 127.995 41.3981H127.387V43.584C127.387 43.7344 127.399 43.8304 127.424 43.8729C127.449 43.9154 127.518 43.9366 127.632 43.9366H127.996C128.1 43.9366 128.152 43.979 128.152 44.064V44.6501H128.15Z" fill="white"/>
<path id="Vector_38" d="M134.364 43.2148C134.364 43.4151 134.329 43.6126 134.26 43.8083C134.19 44.004 134.076 44.1794 133.914 44.3345C133.754 44.4895 133.544 44.616 133.287 44.7138C133.029 44.8117 132.712 44.8606 132.336 44.8606C132.039 44.8606 131.778 44.8458 131.553 44.8154C131.327 44.7849 131.12 44.7452 130.932 44.6954C130.893 44.6852 130.858 44.6677 130.828 44.6428C130.798 44.6178 130.784 44.5855 130.784 44.5449V43.8083C130.784 43.7529 130.796 43.716 130.821 43.6957C130.846 43.6754 130.878 43.6652 130.918 43.6652H130.94C131.013 43.6754 131.117 43.6855 131.248 43.6957C131.379 43.7058 131.514 43.7141 131.653 43.7215C131.792 43.7289 131.924 43.7363 132.05 43.7437C132.176 43.7511 132.276 43.7548 132.351 43.7548C132.608 43.7548 132.782 43.7123 132.874 43.6274C132.965 43.5425 133.012 43.4095 133.012 43.2295C133.012 43.1197 132.978 43.0255 132.912 42.948C132.845 42.8705 132.715 42.7745 132.522 42.6591L131.498 42.0434C131.325 41.9381 131.182 41.8301 131.071 41.7203C130.96 41.6105 130.87 41.4951 130.804 41.3751C130.737 41.2551 130.69 41.1305 130.662 41.0031C130.635 40.8757 130.621 40.7437 130.621 40.6089C130.621 40.404 130.652 40.212 130.714 40.0338C130.776 39.8557 130.881 39.7006 131.03 39.5677C131.179 39.4348 131.374 39.3314 131.616 39.2557C131.859 39.1809 132.161 39.1431 132.522 39.1431C132.655 39.1431 132.8 39.1477 132.956 39.1578C133.112 39.168 133.262 39.18 133.405 39.1957C133.548 39.2105 133.682 39.228 133.806 39.2483C133.931 39.2686 134.026 39.288 134.096 39.3083C134.125 39.3185 134.151 39.3332 134.173 39.3535C134.195 39.3738 134.207 39.4034 134.207 39.444V40.2028C134.207 40.2378 134.199 40.2683 134.181 40.2932C134.164 40.3181 134.13 40.3311 134.081 40.3311H134.066C134.012 40.3265 133.924 40.32 133.803 40.3126C133.682 40.3052 133.544 40.296 133.391 40.2868C133.237 40.2766 133.08 40.2683 132.919 40.2609C132.758 40.2535 132.615 40.2498 132.492 40.2498C132.28 40.2498 132.129 40.2821 132.043 40.3477C131.957 40.4132 131.913 40.5129 131.913 40.6486C131.913 40.704 131.92 40.7511 131.935 40.7917C131.949 40.8314 131.976 40.8701 132.012 40.908C132.05 40.9458 132.1 40.9855 132.165 41.028C132.228 41.0705 132.311 41.1194 132.41 41.1748L133.36 41.6935C133.746 41.904 134.01 42.1348 134.151 42.3849C134.293 42.6351 134.363 42.9138 134.363 43.2185L134.364 43.2148Z" fill="white"/>
<path id="Vector_39" d="M138.722 42.9076C138.722 43.2085 138.681 43.479 138.6 43.719C138.518 43.959 138.399 44.1639 138.243 44.331C138.087 44.499 137.894 44.6291 137.664 44.7215C137.434 44.8138 137.168 44.8608 136.866 44.8608C136.564 44.8608 136.298 44.8147 136.068 44.7215C135.838 44.6282 135.644 44.499 135.485 44.331C135.326 44.163 135.207 43.959 135.125 43.719C135.043 43.479 135.002 43.2076 135.002 42.9076V42.3815C135.002 42.0805 135.043 41.8101 135.125 41.5701C135.207 41.3291 135.326 41.1251 135.485 40.9581C135.644 40.7901 135.838 40.6599 136.068 40.5676C136.298 40.4753 136.564 40.4282 136.866 40.4282C137.168 40.4282 137.434 40.4744 137.664 40.5676C137.894 40.6599 138.087 40.791 138.243 40.9581C138.399 41.1261 138.518 41.3301 138.6 41.5701C138.682 41.8101 138.722 42.0805 138.722 42.3815V42.9076ZM137.527 42.3815C137.527 41.7704 137.306 41.4648 136.867 41.4648C136.649 41.4648 136.483 41.5415 136.37 41.6938C136.256 41.847 136.199 42.0759 136.199 42.3815V42.9076C136.199 43.2131 136.256 43.4439 136.37 43.599C136.484 43.7541 136.649 43.8316 136.867 43.8316C137.307 43.8316 137.527 43.5233 137.527 42.9076V42.3815Z" fill="white"/>
<path id="Vector_40" d="M140.697 44.6352C140.697 44.6749 140.683 44.7118 140.656 44.7441C140.628 44.7764 140.595 44.793 140.555 44.793H139.65C139.61 44.793 139.574 44.7764 139.542 44.7441C139.51 44.7118 139.494 44.6749 139.494 44.6352V39.1807C139.494 39.141 139.51 39.106 139.542 39.0755C139.574 39.045 139.61 39.0303 139.65 39.0303H140.555C140.595 39.0303 140.628 39.045 140.656 39.0755C140.683 39.106 140.697 39.141 140.697 39.1807V44.6352Z" fill="white"/>
<path id="Vector_41" d="M145.24 44.6427C145.24 44.6824 145.226 44.7174 145.195 44.7479C145.166 44.7784 145.131 44.7931 145.092 44.7931H144.26C144.22 44.7931 144.186 44.7784 144.156 44.7479C144.126 44.7174 144.111 44.6824 144.111 44.6427V44.4627C143.908 44.6076 143.715 44.7091 143.532 44.7673C143.348 44.8245 143.139 44.8541 142.901 44.8541C142.633 44.8541 142.414 44.8097 142.244 44.723C142.073 44.6353 141.939 44.5134 141.842 44.3584C141.746 44.2033 141.679 44.0214 141.642 43.8137C141.604 43.6061 141.586 43.3845 141.586 43.1491V40.6476C141.586 40.6079 141.603 40.571 141.634 40.5387C141.666 40.5064 141.703 40.4897 141.742 40.4897H142.641C142.68 40.4897 142.714 40.5064 142.745 40.5387C142.775 40.571 142.789 40.6079 142.789 40.6476V43.1491C142.789 43.2793 142.797 43.3891 142.812 43.4796C142.827 43.5701 142.854 43.6421 142.894 43.6974C142.933 43.7528 142.989 43.7916 143.061 43.8137C143.133 43.8368 143.225 43.8479 143.339 43.8479C143.453 43.8479 143.559 43.8257 143.673 43.7805C143.787 43.7353 143.908 43.6781 144.037 43.6079V40.6476C144.037 40.6079 144.052 40.571 144.082 40.5387C144.111 40.5064 144.146 40.4897 144.186 40.4897H145.084C145.123 40.4897 145.16 40.5064 145.192 40.5387C145.224 40.571 145.24 40.6079 145.24 40.6476V44.6445V44.6427Z" fill="white"/>
<path id="Vector_42" d="M148.581 44.6501C148.581 44.735 148.534 44.7849 148.44 44.8006C148.326 44.8209 148.227 44.8357 148.143 44.8458C148.059 44.856 147.962 44.8606 147.853 44.8606C147.65 44.8606 147.471 44.844 147.315 44.8117C147.159 44.7793 147.03 44.7157 146.926 44.6197C146.822 44.5246 146.743 44.3935 146.689 44.2255C146.634 44.0575 146.607 43.8415 146.607 43.5757V41.3972L146.013 41.2994C145.974 41.2892 145.937 41.2707 145.905 41.243C145.873 41.2153 145.857 41.1821 145.857 41.1415V40.6458C145.857 40.6061 145.873 40.5692 145.905 40.5369C145.937 40.5046 145.973 40.488 146.013 40.488H146.607V39.8723C146.607 39.8326 146.621 39.7993 146.651 39.7744C146.681 39.7495 146.716 39.732 146.755 39.7218L147.661 39.564H147.684C147.723 39.564 147.756 39.575 147.781 39.5981C147.805 39.6203 147.818 39.6517 147.818 39.6923V40.4889H148.426C148.466 40.4889 148.5 40.5037 148.53 40.5341C148.56 40.5646 148.575 40.5997 148.575 40.6394V41.2477C148.575 41.2874 148.56 41.3224 148.53 41.3529C148.5 41.3833 148.466 41.3981 148.426 41.3981H147.818V43.584C147.818 43.7344 147.83 43.8304 147.855 43.8729C147.88 43.9154 147.949 43.9366 148.063 43.9366H148.427C148.531 43.9366 148.583 43.979 148.583 44.064V44.6501H148.581Z" fill="white"/>
<path id="Vector_43" d="M150.519 39.8492C150.519 39.8889 150.504 39.924 150.474 39.9545C150.444 39.9849 150.409 39.9997 150.37 39.9997H149.405C149.366 39.9997 149.331 39.9849 149.301 39.9545C149.271 39.924 149.256 39.8898 149.256 39.8492V39.1505C149.256 39.1108 149.271 39.0757 149.301 39.0452C149.331 39.0148 149.365 39 149.405 39H150.37C150.409 39 150.444 39.0148 150.474 39.0452C150.504 39.0757 150.519 39.1108 150.519 39.1505V39.8492ZM150.49 44.6428C150.49 44.6825 150.475 44.7175 150.445 44.748C150.415 44.7785 150.38 44.7932 150.341 44.7932H149.435C149.396 44.7932 149.361 44.7785 149.331 44.748C149.301 44.7175 149.286 44.6825 149.286 44.6428V40.6385C149.286 40.5988 149.301 40.5637 149.331 40.5332C149.361 40.5028 149.395 40.488 149.435 40.488H150.341C150.38 40.488 150.415 40.5028 150.445 40.5332C150.475 40.5637 150.49 40.5988 150.49 40.6385V44.6428Z" fill="white"/>
<path id="Vector_44" d="M155.01 42.9076C155.01 43.2085 154.969 43.479 154.888 43.719C154.806 43.959 154.687 44.1639 154.531 44.331C154.375 44.499 154.182 44.6291 153.952 44.7215C153.722 44.8138 153.456 44.8608 153.154 44.8608C152.852 44.8608 152.586 44.8147 152.356 44.7215C152.126 44.6282 151.932 44.499 151.773 44.331C151.614 44.163 151.495 43.959 151.413 43.719C151.331 43.479 151.29 43.2076 151.29 42.9076V42.3815C151.29 42.0805 151.331 41.8101 151.413 41.5701C151.495 41.3291 151.614 41.1251 151.773 40.9581C151.932 40.7901 152.126 40.6599 152.356 40.5676C152.586 40.4753 152.852 40.4282 153.154 40.4282C153.456 40.4282 153.722 40.4744 153.952 40.5676C154.182 40.6599 154.375 40.791 154.531 40.9581C154.687 41.1261 154.806 41.3301 154.888 41.5701C154.97 41.8101 155.01 42.0805 155.01 42.3815V42.9076ZM153.815 42.3815C153.815 41.7704 153.595 41.4648 153.155 41.4648C152.937 41.4648 152.771 41.5415 152.658 41.6938C152.544 41.847 152.487 42.0759 152.487 42.3815V42.9076C152.487 43.2131 152.544 43.4439 152.658 43.599C152.772 43.7541 152.937 43.8316 153.155 43.8316C153.595 43.8316 153.815 43.5233 153.815 42.9076V42.3815Z" fill="white"/>
<path id="Vector_45" d="M159.435 44.6356C159.435 44.6752 159.419 44.7122 159.387 44.7445C159.355 44.7768 159.318 44.7934 159.279 44.7934H158.381C158.341 44.7934 158.307 44.7768 158.277 44.7445C158.246 44.7122 158.232 44.6752 158.232 44.6356V42.134C158.232 42.0039 158.225 41.894 158.21 41.8036C158.195 41.7131 158.168 41.6411 158.128 41.5857C158.089 41.5303 158.032 41.4916 157.961 41.4694C157.889 41.4472 157.797 41.4352 157.683 41.4352C157.569 41.4352 157.462 41.4574 157.349 41.5026C157.235 41.5479 157.114 41.6051 156.985 41.6752V44.6356C156.985 44.6752 156.97 44.7122 156.94 44.7445C156.91 44.7768 156.875 44.7934 156.836 44.7934H155.938C155.899 44.7934 155.862 44.7768 155.83 44.7445C155.798 44.7122 155.782 44.6752 155.782 44.6356V40.6386C155.782 40.5989 155.796 40.5639 155.827 40.5334C155.857 40.5029 155.89 40.4882 155.931 40.4882H156.762C156.802 40.4882 156.836 40.5029 156.866 40.5334C156.896 40.5639 156.911 40.5989 156.911 40.6386V40.8186C157.114 40.6737 157.307 40.5722 157.49 40.514C157.674 40.4568 157.883 40.4272 158.121 40.4272C158.389 40.4272 158.608 40.4725 158.778 40.562C158.949 40.6516 159.083 40.7734 159.179 40.9266C159.275 41.0799 159.342 41.2599 159.379 41.4676C159.417 41.6752 159.435 41.8968 159.435 42.1322V44.6337V44.6356Z" fill="white"/>
</g>
</g>
</svg>
