<svg width="32" height="32" viewBox="0 0 32 32" fill="none" xmlns="http://www.w3.org/2000/svg">
<g id="Documents/Document-1-Copy">
<g id="Icon">
<path d="M20.6533 3.40969V8.91635C20.6533 9.9031 21.4533 10.703 22.44 10.703H28C28.2688 10.6973 28.509 10.5338 28.6128 10.2857C28.7166 10.0377 28.6646 9.75185 28.48 9.55635L21.8133 2.88969C21.6199 2.67264 21.3082 2.60594 21.0429 2.72486C20.7776 2.84378 20.62 3.12089 20.6533 3.40969Z" fill="#AB0362"/>
<path d="M22.32 12.0364C20.6957 12.0217 19.3866 10.7008 19.3867 9.07635V3.32969C19.3867 2.99832 19.118 2.72969 18.7867 2.72969H15.5733C12.915 2.72969 10.76 4.88469 10.76 7.54302V20.9697C10.76 23.628 12.915 25.783 15.5733 25.783H23.8667C26.5272 25.783 28.686 23.6302 28.6933 20.9697V12.6364C28.6861 12.3028 28.4136 12.0363 28.08 12.0364H22.32Z" fill="#AB0362"/>
<path d="M9.10667 21.5164C9.10666 24.7291 11.7072 27.3357 14.92 27.343L21.04 27.3564C20.1626 28.9938 18.4576 30.0178 16.6 30.023H9.04C6.25648 30.023 4 27.7665 4 24.983V12.383C4 11.0463 4.531 9.76439 5.47618 8.8192C6.42137 7.87402 7.70331 7.34302 9.04 7.34302H9.18667C9.14028 7.59389 9.11353 7.84799 9.10667 8.10302V21.5164Z" fill="#AB0362"/>
</g>
</g>
</svg>
