<svg width="19" height="19" viewBox="0 0 19 19" fill="none" xmlns="http://www.w3.org/2000/svg">
<g clip-path="url(#clip0_3_1355)">
<path fill-rule="evenodd" clip-rule="evenodd" d="M7.66681 6.29993C7.69404 7.66107 8.80539 8.7502 10.1668 8.74993C11.512 8.72777 12.5984 7.64503 12.6251 6.29993V5.35826C12.6253 4.80358 12.4016 4.27231 12.0047 3.88483C11.6078 3.49735 11.0713 3.28645 10.5168 3.29992H9.73348C9.18613 3.29771 8.66044 3.51359 8.27263 3.89984C7.88481 4.2861 7.66681 4.81091 7.66681 5.35826V6.29993ZM10.5418 4.52492C11.002 4.52492 11.3751 4.89802 11.3751 5.35826L11.3418 6.29993C11.3418 6.96727 10.8008 7.50826 10.1335 7.50826C9.46614 7.50826 8.92515 6.96727 8.92515 6.29993V5.35826C8.92515 4.89802 9.29824 4.52492 9.75848 4.52492H10.5418Z" fill="#718096"/>
<path fill-rule="evenodd" clip-rule="evenodd" d="M1.43348 11.7499L1.34181 13.0499C1.2455 13.4568 1.33954 13.8854 1.59735 14.2145C1.85516 14.5437 2.24873 14.7376 2.66681 14.7416H6.40848C6.73489 15.0895 7.18974 15.2883 7.66681 15.2916H12.6668C13.168 15.2983 13.6478 15.0888 13.9835 14.7166C14.061 14.7252 14.1393 14.7252 14.2168 14.7166H18.0418C18.4485 14.7013 18.8275 14.5065 19.0768 14.1849C19.3261 13.8632 19.4201 13.4476 19.3335 13.0499L19.2085 11.7499C19.0869 11.1296 18.5488 10.6783 17.9168 10.6666H14.3335C14.1839 10.6583 14.0341 10.6781 13.8918 10.7249C13.5721 10.3256 13.0867 10.0951 12.5751 10.0999H7.75848C7.27686 10.0981 6.81801 10.3048 6.50014 10.6666C6.4421 10.6584 6.38319 10.6584 6.32514 10.6666H2.72515C2.09315 10.6783 1.55508 11.1296 1.43348 11.7499ZM6.37514 13.4666H2.60014C2.57464 13.4175 2.5716 13.3598 2.59181 13.3083V13.1416L2.67514 11.9583L2.72514 11.8916H6.50014C6.85244 11.8929 7.1887 11.7444 7.42514 11.4833C7.50782 11.3844 7.62958 11.3265 7.75847 11.3249H12.5751C12.7147 11.3267 12.8462 11.3909 12.9335 11.4999C13.1714 11.7823 13.5226 11.9442 13.8918 11.9416C14.043 11.9423 14.1929 11.914 14.3335 11.8583H17.8751C17.9251 11.8583 17.9251 11.8749 17.9251 11.9249L18.0085 13.1083V13.2749C18.0313 13.3252 18.0313 13.3829 18.0085 13.4333H14.1835C14.0948 13.4251 14.0055 13.4251 13.9168 13.4333C13.5781 13.4395 13.2577 13.5877 13.0335 13.8416C12.9415 13.9492 12.8083 14.0128 12.6668 14.0166H7.63347C7.49174 14.0138 7.35808 13.9501 7.26681 13.8416C7.0325 13.6012 6.71083 13.4659 6.37514 13.4666Z" fill="#718096"/>
<path fill-rule="evenodd" clip-rule="evenodd" d="M2.69181 7.54993C2.69181 8.56245 3.51262 9.38326 4.52514 9.38326C5.01282 9.38548 5.48127 9.1933 5.8269 8.84924C6.17252 8.50519 6.36681 8.0376 6.36681 7.54993V6.84993C6.36681 6.44105 6.20438 6.04892 5.91527 5.7598C5.62615 5.47068 5.23402 5.30826 4.82514 5.30826H4.23348C3.38204 5.30826 2.69181 5.99849 2.69181 6.84993V7.54993ZM5.03138 6.67702C5.08608 6.73172 5.11681 6.8059 5.11681 6.88326V7.58326C5.08131 7.8808 4.82897 8.10483 4.52931 8.10483C4.22965 8.10483 3.97731 7.8808 3.94181 7.58326V6.88326C3.94181 6.72217 4.07239 6.59159 4.23348 6.59159H4.82514C4.9025 6.59159 4.97668 6.62232 5.03138 6.67702Z" fill="#718096"/>
<path fill-rule="evenodd" clip-rule="evenodd" d="M14.8151 8.84924C15.1607 9.1933 15.6291 9.38548 16.1168 9.38326C16.603 9.38326 17.0694 9.1901 17.4132 8.84629C17.757 8.50247 17.9501 8.03616 17.9501 7.54993V6.84993C17.9501 5.99849 17.2599 5.30826 16.4085 5.30826H15.8168C14.9654 5.30826 14.2751 5.99849 14.2751 6.84993V7.54993C14.2751 8.0376 14.4694 8.50519 14.8151 8.84924ZM16.4085 6.59159C16.5696 6.59159 16.7001 6.72217 16.7001 6.88326V7.58326C16.6646 7.8808 16.4123 8.10483 16.1126 8.10483C15.813 8.10483 15.5606 7.8808 15.5251 7.58326V6.88326C15.5251 6.72217 15.6557 6.59159 15.8168 6.59159H16.4085Z" fill="#718096"/>
</g>
<defs>
<clipPath id="clip0_3_1355">
<rect width="18.264" height="18.264" fill="white" transform="matrix(-1 0 0 1 18.78 0.175781)"/>
</clipPath>
</defs>
</svg>
