<svg width="32" height="32" viewBox="0 0 32 32" fill="none" xmlns="http://www.w3.org/2000/svg">
<g id="Interface essential/Home">
<path id="Icon" fill-rule="evenodd" clip-rule="evenodd" d="M19.2716 5.07093L25.9411 9.99725C27.2264 10.9275 27.9912 12.4148 28 14.0015V22.9194C27.9174 25.7789 25.5422 28.0357 22.6821 27.972H9.33053C6.4656 28.0427 4.0826 25.784 4 22.9194V14.0015C4.00879 12.4148 4.77358 10.9275 6.05895 9.99725L12.7284 5.07093C14.6758 3.64302 17.3242 3.64302 19.2716 5.07093ZM10.3158 22.6288H21.6842C22.2074 22.6288 22.6316 22.2047 22.6316 21.6815C22.6316 21.1582 22.2074 20.7341 21.6842 20.7341H10.3158C9.79257 20.7341 9.36842 21.1582 9.36842 21.6815C9.36842 22.2047 9.79257 22.6288 10.3158 22.6288Z" fill="#AB0362"/>
</g>
</svg>
