<svg width="32" height="32" viewBox="0 0 32 32" fill="none" xmlns="http://www.w3.org/2000/svg">
<g id="User/Person">
<g id="Icon">
<path d="M22.1867 29.3332H9.81333C8.46556 29.2842 7.21008 28.6359 6.38979 27.5654C5.56949 26.4949 5.27008 25.114 5.57333 23.7999L5.89333 22.2799C6.26137 20.2222 8.03016 18.7101 10.12 18.6665H21.88C23.9698 18.7101 25.7386 20.2222 26.1067 22.2799L26.4267 23.7999C26.7299 25.114 26.4305 26.4949 25.6102 27.5654C24.7899 28.6359 23.5344 29.2842 22.1867 29.3332Z" fill="#AB0362"/>
<path d="M16.6667 15.9999H15.3333C12.3878 15.9999 9.99999 13.612 9.99999 10.6665V7.14652C9.99644 5.95727 10.4673 4.8157 11.3082 3.97476C12.1492 3.13383 13.2907 2.66297 14.48 2.66652H17.52C18.7093 2.66297 19.8508 3.13383 20.6918 3.97476C21.5327 4.8157 22.0036 5.95727 22 7.14652V10.6665C22 12.081 21.4381 13.4376 20.4379 14.4378C19.4377 15.438 18.0811 15.9999 16.6667 15.9999Z" fill="#AB0362"/>
</g>
</g>
</svg>
