<svg width="19" height="19" viewBox="0 0 19 19" fill="none" xmlns="http://www.w3.org/2000/svg">
<path d="M11.2507 5.22998H8.79573M11.2507 8.0357H6.69143M11.2507 10.8414H6.69143" stroke="#718096" stroke-width="0.9132" stroke-linecap="round" stroke-linejoin="round"/>
<path fill-rule="evenodd" clip-rule="evenodd" d="M2.89536 11.4459C2.83354 10.8382 2.83355 10.0772 2.83355 9.11679L2.83354 7.13637C2.83339 6.4013 2.83329 5.92725 2.96118 5.4786C3.03129 5.23264 3.12949 4.99556 3.25384 4.77207C3.48065 4.3644 3.81592 4.02926 4.3358 3.5096L4.44518 3.40021C4.96485 2.88034 5.29998 2.54507 5.70765 2.31825C5.93115 2.19391 6.16822 2.09571 6.41418 2.0256C6.86283 1.89771 7.33688 1.89781 8.07195 1.89796L8.97107 1.89797V1.89949C9.62712 1.90342 10.1794 1.91752 10.6454 1.96801C11.3084 2.03984 11.8589 2.19035 12.3323 2.53429C12.6152 2.73979 12.8639 2.98853 13.0694 3.27138C13.2884 3.57284 13.429 3.9056 13.5208 4.27876L14.0959 4.43285C15.8733 4.90911 16.9281 6.73605 16.4518 8.51345L14.9087 14.2725C14.4324 16.0499 12.6055 17.1046 10.8281 16.6284L6.76291 15.5391C5.98652 15.3311 5.34802 14.8653 4.91476 14.2586C4.70168 14.1843 4.50242 14.0879 4.3143 13.9622C3.9505 13.7191 3.63814 13.4068 3.39506 13.043C3.09125 12.5883 2.9587 12.0685 2.89536 11.4459ZM8.06353 2.95014L8.14929 2.95012C9.20259 2.95013 9.95238 2.95123 10.532 3.01404C11.1055 3.07617 11.4497 3.19358 11.7139 3.38549C11.9074 3.5261 12.0776 3.69629 12.2182 3.88982C12.4101 4.15396 12.5275 4.49819 12.5897 5.07166C12.6529 5.65497 12.6536 6.41056 12.6536 7.47435V9.08763C12.6536 10.0837 12.6529 10.7912 12.5972 11.3394C12.5423 11.8788 12.4384 12.2054 12.2694 12.4584C12.1031 12.7073 11.8893 12.9211 11.6404 13.0874C11.3874 13.2564 11.0608 13.3603 10.5214 13.4152C9.97318 13.4709 9.26572 13.4716 8.26964 13.4716C7.27356 13.4716 6.56609 13.4709 6.01787 13.4152C5.47844 13.3603 5.15183 13.2564 4.89884 13.0874C4.64993 12.9211 4.43621 12.7073 4.26989 12.4584C4.10085 12.2054 3.99698 11.8788 3.9421 11.3394C3.88634 10.7912 3.8857 10.0837 3.8857 9.08763V7.33406C3.8857 6.98853 3.88682 6.7823 3.90669 6.63449C3.91579 6.56676 3.92652 6.53284 3.93281 6.51757C3.93426 6.51403 3.9354 6.5117 3.9361 6.51035L3.93707 6.50864L3.93878 6.50767C3.94013 6.50696 3.94246 6.50583 3.946 6.50437C3.96127 6.49809 3.9952 6.48736 4.06292 6.47826C4.21073 6.45838 4.41696 6.45727 4.76249 6.45727L5.49531 6.45727C5.79889 6.45731 6.07724 6.45734 6.30367 6.4269C6.55302 6.39337 6.81656 6.3145 7.03332 6.09774C7.25008 5.88098 7.32896 5.61744 7.36248 5.36809C7.39292 5.14166 7.39289 4.86331 7.39285 4.55972L7.39285 3.68662C7.39285 3.41188 7.39357 3.24809 7.40653 3.12845C7.41416 3.05807 7.42386 3.02923 7.42746 3.02087C7.43768 3.00712 7.44986 2.99495 7.46361 2.98473C7.47197 2.98112 7.5008 2.97142 7.57118 2.9638C7.68094 2.95191 7.82787 2.95032 8.06353 2.95014ZM7.01506 14.5173C7.38277 14.5237 7.78966 14.5237 8.24048 14.5237H8.2988C9.25921 14.5237 10.0202 14.5237 10.6279 14.4619C11.2505 14.3986 11.7703 14.266 12.225 13.9622C12.5888 13.7191 12.9011 13.4068 13.1442 13.043C13.448 12.5883 13.5806 12.0685 13.6439 11.4459C13.7057 10.8382 13.7057 10.0772 13.7057 9.11681V7.44313C13.7057 6.64267 13.7057 5.97196 13.6724 5.40865L13.8236 5.44915C15.0397 5.77501 15.7614 7.02502 15.4355 8.24114L13.8924 14.0001C13.5665 15.2163 12.3165 15.938 11.1004 15.6121L7.03523 14.5228C7.02849 14.521 7.02177 14.5192 7.01506 14.5173ZM4.17326 5.2836C4.1488 5.32757 4.12582 5.37231 4.10434 5.41773C4.29178 5.40507 4.50441 5.40509 4.7311 5.40512L5.46392 5.40512C5.80945 5.40512 6.01567 5.404 6.16348 5.38413C6.23121 5.37503 6.26513 5.3643 6.28041 5.35801C6.28395 5.35656 6.28627 5.35542 6.28763 5.35472L6.28933 5.35375L6.2903 5.35204C6.29101 5.35069 6.29214 5.34836 6.2936 5.34482C6.29988 5.32955 6.31061 5.29562 6.31972 5.2279C6.33959 5.08009 6.3407 4.87386 6.3407 4.52833L6.3407 3.66186C6.34069 3.48522 6.34067 3.31919 6.34841 3.17108C6.30467 3.19189 6.26157 3.2141 6.21918 3.23768C5.95575 3.38424 5.72768 3.60568 5.13448 4.19889C4.54127 4.7921 4.31983 5.02017 4.17326 5.2836Z" fill="#718096"/>
</svg>
