<svg width="32" height="32" viewBox="0 0 32 32" fill="none" xmlns="http://www.w3.org/2000/svg">
<g id="User/Two-Person">
<g id="Icon">
<path d="M11.8933 16.0001H12C14.9455 16.0001 17.3333 13.6123 17.3333 10.6668V8.57344C17.3298 7.37708 16.8494 6.23152 15.9984 5.39058C15.1475 4.54965 13.9963 4.08278 12.8 4.09344H11.04C8.5688 4.10076 6.56732 6.10224 6.55999 8.57344V10.6668C6.55999 13.6123 8.94781 16.0001 11.8933 16.0001Z" fill="#AB0362"/>
<path d="M23.3333 15.0001C25.5425 15.0001 27.3333 13.2092 27.3333 11.0001V9.46677C27.3334 7.62146 25.8453 6.12142 24 6.10677H22.6667C20.8214 6.12142 19.3333 7.62146 19.3333 9.46677V11.0001C19.3333 13.2092 21.1242 15.0001 23.3333 15.0001Z" fill="#AB0362"/>
<path d="M29.8533 20.5601L29.64 19.5068C29.3878 18.0608 28.1345 17.0041 26.6667 17.0001H18.5333C17.5394 17.0022 16.6129 17.503 16.0667 18.3334H6.66666C5.72357 18.3341 4.81673 18.6969 4.13333 19.3468C3.54617 19.8848 3.13297 20.5858 2.94666 21.3601C2.94666 21.4268 2.94666 21.4934 2.94666 21.5468V21.8934L2.66666 22.9601C2.38148 24.1271 2.63588 25.3604 3.35956 26.3193C4.08324 27.2782 5.19955 27.861 6.39999 27.9068H17.44C17.7233 27.9058 18.0054 27.87 18.28 27.8001H18.4533C18.6537 27.743 18.8498 27.6717 19.04 27.5868L19.2533 27.4668C19.4125 27.377 19.5641 27.2744 19.7067 27.1601L19.92 26.9868C20.0511 26.8645 20.1758 26.7355 20.2933 26.6001C20.2933 26.5334 20.4133 26.4801 20.4667 26.4001C20.6157 26.2043 20.7452 25.9944 20.8533 25.7734C20.9102 25.6523 20.9592 25.5276 21 25.4001C21.0524 25.2787 21.0969 25.154 21.1333 25.0268C21.1333 24.8934 21.2 24.7601 21.2267 24.6268V24.4268H26.9333C27.8749 24.3989 28.7529 23.9454 29.3206 23.1937C29.8882 22.442 30.0842 21.4733 29.8533 20.5601Z" fill="#AB0362"/>
</g>
</g>
</svg>
